<svg width="451" height="204" viewBox="0 0 451 204" fill="none" xmlns="http://www.w3.org/2000/svg">
<path d="M135.595 106.713L47.5135 16.3199L0 63.8502L88.0819 154.243L135.595 106.713Z" fill="#FFC107"/>
<path d="M422.329 174.126C403.838 193.39 379.256 204 353.11 204C326.963 204 302.381 193.39 283.893 174.129C283.893 174.126 192.544 78.8991 192.544 78.8991C180.317 66.1616 160.426 66.1616 148.201 78.8991C142.278 85.0678 139.018 93.2737 139.018 102C139.018 110.727 142.278 118.932 148.201 125.101C154.315 131.471 162.343 134.655 170.371 134.655C178.4 134.655 186.431 131.468 192.541 125.101L199.025 118.346L246.062 167.382L239.591 174.126C221.102 193.39 196.521 204 170.371 204C144.225 204 119.64 193.39 101.152 174.126C82.6641 154.858 72.4814 129.245 72.4814 102C72.4814 74.7556 82.6641 49.139 101.152 29.8746C119.64 10.6103 144.225 0.00012475 170.371 0.00012475C196.518 0.00012475 221.1 10.6073 239.588 29.8716L308.772 101.994L330.873 125.035L330.937 125.101C343.164 137.839 363.055 137.839 375.28 125.101C381.203 118.932 384.463 110.727 384.463 102C384.463 93.2737 381.203 85.0678 375.28 78.8991C363.055 66.1616 343.164 66.1616 330.937 78.8991L324.453 85.6546L277.416 36.6181L283.89 29.8746C302.378 10.6103 326.96 0.00012475 353.107 0.00012475C379.253 0.00012475 403.838 10.6103 422.326 29.8746C440.817 49.139 451 74.7556 451 102C451 129.245 440.817 154.858 422.329 174.126V174.126Z" fill="#FFC107"/>
</svg>
